# xmcd
#
# Track frame offsets:
#	150
#	17155
#	33962
#	78562
#	96545
#	116281
#	140731
#	159543
#	192774
#	204515
#	238816
#	261097
#	288562
#	302201
#
# Disc length: 4159 seconds
#
# Revision: 1
# Processed by: cddbd v1.5.2PL0 Copyright (c) Steve Scherf et al.
# Submitted via: audiograbber 1.83.01
#
DISCID=c8103d0e
DTITLE=Ten Years After - Essential collection
DYEAR=1900
DGENRE=
TTITLE0=Rock And Roll Music To The World
TTITLE1=I'd Love To Change The World
TTITLE2=I'm Going Home
TTITLE3=Choo Choo Mama
TTITLE4=Tomorrow I'll Be Out of Town
TTITLE5=I Woke up This Morning
TTITLE6=Me and My Baby
TTITLE7=Good Morning Little Schoolgirl
TTITLE8=Goin' Back to Birmingham
TTITLE9=50,000 Miles Beneath My Brain
TTITLE10=Sweet Little Sixteen
TTITLE11=I'm Coming On
TTITLE12=Love Like A Man
TTITLE13=Baby Won't You Let Me Rock N' Roll You
EXTD=
EXTT0=
EXTT1=
EXTT2=
EXTT3=
EXTT4=
EXTT5=
EXTT6=
EXTT7=
EXTT8=
EXTT9=
EXTT10=
EXTT11=
EXTT12=
EXTT13=
PLAYORDER=
